<svg width="48" height="48" fill="none" xmlns="http://www.w3.org/2000/svg"><path fill-rule="evenodd" clip-rule="evenodd" d="M0 24C0 10.745 10.745 0 24 0s24 10.745 24 24-10.745 24-24 24S0 37.255 0 24zm27.907-9.838c.916-1.183 1.611-2.855 1.36-4.562-1.498.104-3.248 1.062-4.27 2.311-.931 1.132-1.696 2.816-1.397 4.45 1.637.05 3.327-.93 4.307-2.2zm7.28 4.865c-4.716 2.6-3.953 9.376.813 11.188-.655 1.46-.97 2.113-1.815 3.407-1.177 1.805-2.837 4.054-4.897 4.07-.846.01-1.402-.247-2-.523-.695-.32-1.448-.667-2.78-.66-1.325.008-2.09.35-2.793.666-.615.276-1.183.53-2.037.522-2.058-.018-3.63-2.047-4.808-3.852-3.295-5.046-3.641-10.969-1.61-14.12 1.445-2.236 3.725-3.545 5.866-3.545 1.141 0 2.06.33 2.937.644.797.286 1.559.56 2.419.56.795 0 1.45-.25 2.163-.522.857-.326 1.799-.685 3.174-.685 1.908 0 3.93 1.046 5.368 2.85z" fill="#F1C086"/></svg>