<svg width="278" height="317" fill="none" xmlns="http://www.w3.org/2000/svg"><path fill-rule="evenodd" clip-rule="evenodd" d="M199.772-117.682c45.032-4.308 82.291 36.036 112.297 69.667 25.515 28.597 27.391 68.409 42.318 103.625 16.916 39.909 61.999 74.351 50.867 116.216-11.082 41.676-66.175 50.817-101.82 75.403-34.608 23.869-62.103 59.439-103.662 66.322-45.521 7.54-98.953 4.498-132.244-27.247-32.703-31.182-19.264-84.631-30.767-128.185-10.548-39.943-47.453-77.123-33.75-116.11C16.71 3.04 69.982-1.822 102.16-27.938c35.194-28.564 52.373-85.417 97.613-89.744z" fill="#222324"/></svg>