<svg width="257" height="246" fill="none" xmlns="http://www.w3.org/2000/svg"><path fill-rule="evenodd" clip-rule="evenodd" d="M54.79.709c25.474-2.315 51.723.972 75.3 10.898 23.417 9.859 43.148 26.968 59.942 46.041 16.143 18.335 24.941 41.334 36.119 63.059 11.283 21.925 28.536 42.074 30.624 66.646 2.087 24.563-10.797 47.569-18.942 70.834-7.851 22.423-14.26 45.647-28.496 64.662-14.253 19.038-36.339 29.753-54.06 45.609-20.524 18.365-33.823 46.617-59.66 56.143-25.539 9.416-54.3 1.686-80.843-4.34-26.122-5.93-50.785-16.545-73.528-30.704-22.72-14.146-44.149-30.782-59.947-52.394-15.722-21.509-23.457-47.323-31.509-72.725-8.189-25.835-18.489-51.865-16.552-78.899 1.944-27.141 15.349-51.794 27.656-76.06 12.257-24.169 22.515-51.655 44.875-66.955C-71.81 27.181-41.546 32.166-15.39 24.827 8.63 18.087 29.945 2.967 54.79.71z" fill="#171819"/></svg>