<svg width="48" height="48" fill="none" xmlns="http://www.w3.org/2000/svg"><path fill-rule="evenodd" clip-rule="evenodd" d="M0 24C0 10.745 10.745 0 24 0s24 10.745 24 24-10.745 24-24 24S0 37.255 0 24zm23.965-6.379c1.95 0 3.266.844 4.016 1.549l2.93-2.866c-1.8-1.676-4.142-2.704-6.946-2.704-4.061 0-7.57 2.334-9.277 5.732A10.42 10.42 0 0 0 13.58 24c0 1.676.404 3.259 1.108 4.668l3.37-2.611-3.358 2.611c1.707 3.398 5.204 5.732 9.265 5.732 2.804 0 5.158-.924 6.878-2.52 1.961-1.813 3.092-4.483 3.092-7.649 0-.855-.07-1.479-.22-2.126h-9.75v3.86h5.724c-.116.959-.739 2.403-2.123 3.374-.877.612-2.054 1.04-3.6 1.04-2.747 0-5.078-1.815-5.909-4.322A6.41 6.41 0 0 1 17.712 24c0-.716.127-1.41.335-2.057.842-2.507 3.173-4.322 5.92-4.322z" fill="#F1C086"/></svg>